# xmcd
#
# Track frame offsets:
#	150
#	13725
#	28637
#	44079
#	57701
#	78050
#	92636
#	106553
#	122503
#	139115
#	153628
#	171601
#	186797
#	199758
#
# Disc length: 2846 seconds
#
# Revision: 1
# Processed by: cddbd v1.4PL0 Copyright (c) Steve Scherf et al.
# Submitted via: audiograbber 1.80
#
DISCID=bc0b1c0e
DTITLE=Sveriges bästa dansband - 2003 Augusti
DYEAR=1900
DGENRE=
TTITLE0=Vikingarna - Låt Oss Fånga Vår Dag
TTITLE1=Lotta Engbergs - Ingen Kan Älska Som Dig
TTITLE2=Alf Robertsson - Den Vita Duvan
TTITLE3=Sannex - Cyberfriend
TTITLE4=Danne Stråhed - Kom
TTITLE5=Kellys - Lite Av Din Värme
TTITLE6=Matz Bladhs - Bara Du Och Jag
TTITLE7=Barbados - Kissing In The Backrow Of The Movies
TTITLE8=Curt Haagers - Genom Regn Och Sol
TTITLE9=Christina Lindbergs - Kan Det Kallas För Kärlek Det Här
TTITLE10=Sven Ingvars - Lyckan
TTITLE11=Mats Rådberg and Rankarna - Allting Som Du Gör
TTITLE12=Berth Idoffs - Så'n Är Jag
TTITLE13=Streaplers - Floden Blev Mitt Liv
EXTD=
EXTT0=
EXTT1=
EXTT2=
EXTT3=
EXTT4=
EXTT5=
EXTT6=
EXTT7=
EXTT8=
EXTT9=
EXTT10=
EXTT11=
EXTT12=
EXTT13=
PLAYORDER=
